HIERARCHY
ROOT hip
{
	OFFSET 0.000000 0.000000 0.000000 
	CHANNELS 6 Xposition Yposition Zposition Xrotation Zrotation Yrotation
	JOINT abdomen
	{
		OFFSET 0.000000 3.402643 0.000000 
		CHANNELS 3 Xrotation Zrotation Yrotation
		JOINT chest
		{
			OFFSET 0.000000 8.438565 -0.680529 
			CHANNELS 3 Xrotation Zrotation Yrotation
			JOINT neck
			{
				OFFSET 0.000000 10.207942 -0.272212 
				CHANNELS 3 Xrotation Zrotation Yrotation
				JOINT head
				{
					OFFSET 0.000000 3.130431 0.000000 
					CHANNELS 3 Xrotation Zrotation Yrotation
					End Site
					{
						OFFSET 0.000000 3.130435 0.000000 
					}
				}
			}
			JOINT lCollar
			{
				OFFSET 3.470700 6.669187 -0.816635 
				CHANNELS 3 Yrotation Zrotation Xrotation
				JOINT lShldr
				{
					OFFSET 3.198488 0.000000 0.000000 
					CHANNELS 3 Zrotation Yrotation Xrotation
					JOINT lForeArm
					{
						OFFSET 10.139888 0.000000 0.000000 
						CHANNELS 3 Yrotation Zrotation Xrotation
						JOINT lHand
						{
							OFFSET 8.370511 0.000000 0.000000 
							CHANNELS 3 Zrotation Yrotation Xrotation
							End Site
							{
								OFFSET 4.083176 0.000000 0.000000 
							}
						}
					}
				}
			}
			JOINT rCollar
			{
				OFFSET -3.470700 6.669187 -0.816635 
				CHANNELS 3 Yrotation Zrotation Xrotation
				JOINT rShldr
				{
					OFFSET -3.198488 0.000000 0.000000 
					CHANNELS 3 Zrotation Yrotation Xrotation
					JOINT rForeArm
					{
						OFFSET -10.139888 0.000000 0.000000 
						CHANNELS 3 Yrotation Zrotation Xrotation
						JOINT rHand
						{
							OFFSET -8.370511 0.000000 0.000000 
							CHANNELS 3 Zrotation Yrotation Xrotation
							End Site
							{
								OFFSET -4.083176 0.000000 0.000000 
							}
						}
					}
				}
			}
		}
	}
	JOINT lThigh
	{
		OFFSET 5.308129 -1.633274 1.361059 
		CHANNELS 3 Xrotation Zrotation Yrotation
		JOINT lShin
		{
			OFFSET -2.041588 -20.007561 0.000000 
			CHANNELS 3 Xrotation Zrotation Yrotation
			JOINT lFoot
			{
				OFFSET 0.000000 -19.190928 -1.224953 
				CHANNELS 3 Xrotation Yrotation Zrotation
				End Site
				{
					OFFSET 0.000000 -2.449906 4.627600 
				}
			}
		}
	}
	JOINT rThigh
	{
		OFFSET -5.308129 -1.633274 1.361059 
		CHANNELS 3 Xrotation Zrotation Yrotation
		JOINT rShin
		{
			OFFSET 2.041588 -20.007561 0.000000 
			CHANNELS 3 Xrotation Zrotation Yrotation
			JOINT rFoot
			{
				OFFSET 0.000000 -19.190928 -1.224953 
				CHANNELS 3 Xrotation Yrotation Zrotation
				End Site
				{
					OFFSET 0.000000 -2.449906 4.627600 
				}
			}
		}
	}
}
MOTION
Frames: 6
Frame Time: 0.011111
1.786278 54.930485 5.570417 3.568292 -6.662026 -1.599088 34.895443 3.307419 5.577283 -24.860216 -3.486066 1.108927 -14.654784 -1.007814 -0.606875 -8.138714 3.795466 -1.812566 8.861669 -1.932660 3.351237 -70.452225 -12.946633 41.035503 -87.602036 3.496813 33.191586 8.524705 12.647240 -17.239637 -6.806992 -0.756156 2.905732 66.195236 26.449999 51.992153 87.004097 -2.661057 32.423363 -8.534408 -12.637552 48.773296 -27.484425 12.322527 -8.294391 19.633408 -5.770553 -3.479740 1.476620 9.755962 -3.312047 22.067888 6.054486 6.086748 53.964268 3.378105 7.608377 26.723932 -15.736992 7.913079 
1.768802 54.671471 7.227187 2.944981 -5.957101 -1.489534 35.570740 2.308836 4.959507 -24.985897 -3.174229 1.068457 -14.616036 -1.046055 -0.678457 -8.149403 3.741950 -1.954237 8.861669 -1.932660 3.351237 -70.053070 -14.545118 41.572170 -87.629044 3.529493 33.220036 8.524705 12.647240 -16.712294 -6.806992 -0.756156 2.905732 66.392319 25.151932 51.031017 86.767960 -2.264809 31.992825 -8.534408 -12.637552 49.417824 -24.991787 11.335055 -6.083700 19.603865 -5.766961 -3.476549 2.659511 8.189562 -3.353084 20.141264 5.448516 4.520618 59.153667 2.802086 8.072730 25.906324 -15.270635 7.577699 
1.762873 54.343803 8.887075 2.352422 -4.990736 -1.045404 36.076736 1.312766 3.932707 -25.043262 -2.843733 0.923233 -14.294334 -1.153922 -0.688041 -8.543122 3.852226 -2.035933 8.861669 -1.932660 3.351237 -69.661186 -16.456995 42.141129 -87.609177 3.504985 33.201275 8.524705 12.647240 -16.155651 -6.806992 -0.756156 2.905732 66.540451 23.975019 50.081451 86.587669 -1.928646 31.570337 -8.534408 -12.637552 50.120953 -22.770113 9.891201 -4.208519 20.349619 -5.748448 -3.589069 3.509280 6.033050 -3.259928 18.286406 4.452324 2.514494 64.213860 2.213357 8.490856 24.768833 -15.097735 7.347720 
1.766305 53.973690 10.589096 1.908891 -4.028751 -0.789184 36.190109 0.259966 2.997675 -25.022755 -2.579036 0.819131 -13.874706 -1.244370 -0.594929 -8.614763 4.197707 -1.903504 8.861669 -1.932660 3.351237 -69.150497 -18.302973 42.791931 -87.629128 3.530129 33.229774 8.524705 12.647240 -15.628307 -6.806992 -0.756156 2.905732 66.692474 22.601847 49.131588 86.452644 -1.645911 31.126514 -8.534408 -12.637552 50.765484 -21.062876 8.436677 -2.285085 22.023813 -5.679061 -3.825737 2.702220 2.586367 -3.074340 16.400042 3.240942 0.693376 69.119965 1.644670 8.831187 24.058847 -15.244705 7.317533 
1.753511 53.613564 12.254291 1.457651 -3.405367 -0.155412 36.597672 -0.302024 1.997128 -25.168608 -2.321493 0.624693 -13.834979 -1.149474 -0.538805 -8.231933 4.270918 -1.742478 8.861669 -1.932660 3.351237 -68.599915 -20.319818 43.534771 -87.682274 3.595755 33.286133 8.524705 12.647240 -15.091199 -6.806992 -0.756156 2.905732 66.954155 21.318413 48.185555 86.345871 -1.419540 30.631014 -8.534408 -12.637552 50.697121 -19.884762 7.262846 -0.941702 24.232168 -5.595534 -4.105586 0.565212 -0.403332 -3.100807 14.406334 2.312979 -1.416172 73.881477 1.019590 9.137548 23.379713 -15.329289 7.271934 
1.767866 53.236893 13.901076 0.918968 -2.775364 0.707125 37.157227 -0.607889 0.880730 -25.392776 -2.098373 0.386075 -13.688052 -1.048513 -0.586952 -7.829165 4.129296 -1.773350 8.861669 -1.932660 3.351237 -68.223846 -22.346632 44.326443 -87.775032 3.710007 33.380802 8.524705 12.647240 -14.934950 -6.806992 -0.756156 2.905732 67.197868 20.055801 47.201008 86.258514 -1.279158 30.061913 -8.534408 -12.637552 49.984238 -18.194510 6.090795 -0.393600 26.880503 -5.478936 -4.454540 -3.417756 -1.806876 -3.303484 12.318989 1.160985 -3.724512 78.569969 0.383425 9.380175 22.135353 -15.096629 7.010117 
